<svg width="1094" height="331" viewBox="0 0 1094 331" fill="none" xmlns="http://www.w3.org/2000/svg">
<path d="M166.369 0.463548C75.1924 -0.0444196 1.11521 73.6363 0.0118585 163.237C-1.0559 251.699 70.1028 329.83 165.261 330.033C262.198 330.241 332.482 250.414 330.916 165.452C332.67 80.2907 262.305 1.02231 166.369 0.463548ZM165.622 301.795C84.3396 301.973 27.3771 235.958 28.2109 165.436C27.2449 94.3208 84.7464 28.6761 165.286 28.7472C244.865 28.8132 302.6 92.7512 302.539 165.467C302.478 237.822 244.845 301.633 165.622 301.8V301.795Z" fill="#5996D1"/>
<path d="M210.826 104.798C196.645 117.598 182.907 130.826 170.378 145.257C156.187 133.396 144.06 119.432 130.657 106.774C128.491 104.742 128.99 103.132 130.896 101.247C142.805 89.4757 154.669 77.6637 166.489 65.8111C168.802 63.4694 170.292 63.7031 172.483 65.9432C185.2 78.9574 198.033 91.8597 210.826 104.798Z" fill="#62A3A8"/>
<path d="M252.098 146.133C238.075 158.802 224.544 171.958 212.041 186.131C208.482 185.623 206.835 182.575 204.699 180.381C193.325 168.606 180.72 158.03 170.378 145.255C182.907 130.823 196.645 117.596 210.826 104.795C225.048 118.119 239.122 131.58 252.098 146.133Z" fill="#80C0C5"/>
<path d="M200.378 196.667C188.927 207.805 177.602 219.07 166.403 230.462C163.53 233.378 161.506 233.581 158.547 230.544C146.344 218.063 133.999 205.77 121.704 193.401C121.704 192.893 121.76 192.426 121.816 191.938L161.949 151.885C174.731 164.457 187.453 177.09 200.342 189.546C203.108 192.217 203.169 193.955 200.378 196.667Z" fill="#80C0C5"/>
<path d="M161.946 151.885L121.814 191.938C120.512 191.339 118.9 191.039 117.949 190.089C105.329 177.458 92.7654 164.782 80.2573 152.063C92.862 139.318 105.548 126.639 118.026 113.772C120.766 110.948 122.419 111.954 124.6 114.168C137.016 126.776 149.465 139.348 161.946 151.885Z" fill="#4E868A"/>
<path d="M121.814 191.936C121.758 192.444 121.723 192.911 121.703 193.399C108.589 204.574 97.0474 217.38 84.8139 229.465C81.2954 232.939 79.2616 233.645 75.499 229.729C64.7705 218.554 53.6353 207.769 42.5967 196.868C40.334 194.633 38.529 192.805 41.7526 189.676C54.6776 177.235 67.4348 164.618 80.2581 152.086C92.8001 164.775 105.364 177.45 117.95 190.112C118.901 191.037 120.518 191.337 121.814 191.936Z" fill="#62A3A8"/>
<path d="M289.834 189.117C278.13 200.655 266.469 212.235 254.852 223.857C253.098 225.604 251.064 226.661 249.097 224.588C236.833 211.691 222.606 200.658 212.061 186.13C224.564 171.958 238.094 158.802 252.117 146.133C265.515 157.654 277.255 170.861 290.033 183.016C292.377 185.287 291.96 187.004 289.834 189.117Z" fill="#BADDDF"/>
<path d="M387.662 228.77H393.667V229.954C393.663 230.614 393.695 231.274 393.764 231.93C393.819 232.427 393.931 232.916 394.099 233.388C394.257 233.81 394.485 234.201 394.775 234.546C395.102 234.918 395.463 235.258 395.853 235.562C397.823 237.316 400.755 238.193 404.65 238.193C406.05 238.206 407.447 238.049 408.809 237.726C409.951 237.463 411.042 237.014 412.038 236.395C412.886 235.87 413.602 235.155 414.127 234.307C414.619 233.487 414.874 232.546 414.865 231.59C414.861 231.01 414.786 230.434 414.641 229.873C414.484 229.27 414.223 228.699 413.868 228.186C413.461 227.601 412.961 227.087 412.388 226.662C411.671 226.143 410.881 225.732 410.044 225.443L397.201 222.238C394.353 221.222 392.32 219.867 391.099 218.174C389.828 216.387 389.178 214.234 389.248 212.043C389.229 210.363 389.592 208.701 390.311 207.182C391.017 205.72 392.044 204.437 393.316 203.428C394.714 202.336 396.304 201.516 398.004 201.01C399.997 200.408 402.07 200.115 404.151 200.141C405.836 200.131 407.517 200.301 409.165 200.649C410.631 200.958 412.051 201.46 413.385 202.143C414.582 202.753 415.669 203.56 416.598 204.53C417.953 205.93 418.828 207.723 419.1 209.65C419.228 210.491 419.287 211.34 419.278 212.19L419.375 213.572H413.324C413.324 212.907 413.324 212.348 413.258 211.886C413.225 211.475 413.16 211.067 413.065 210.666C412.986 210.336 412.879 210.013 412.744 209.701C412.617 209.417 412.465 209.112 412.297 208.787C411.91 208.255 411.444 207.785 410.914 207.395C410.325 206.961 409.682 206.604 409.002 206.333C408.245 206.033 407.46 205.808 406.658 205.663C405.795 205.499 404.918 205.417 404.04 205.419C402.874 205.41 401.713 205.557 400.587 205.856C399.601 206.108 398.666 206.531 397.826 207.106C397.072 207.619 396.446 208.299 395.996 209.092C395.548 209.914 395.322 210.838 395.34 211.774C395.331 212.356 395.389 212.937 395.513 213.506C395.629 213.993 395.861 214.444 396.189 214.822C396.577 215.251 397.039 215.609 397.552 215.878C398.274 216.262 399.027 216.585 399.804 216.843L413.131 220.242C418.246 222.08 420.803 225.467 420.803 230.401C420.809 232.079 420.499 233.744 419.888 235.308C419.261 236.894 418.272 238.311 417 239.448C415.518 240.74 413.788 241.716 411.916 242.318C409.497 243.086 406.968 243.45 404.431 243.395C398.885 243.395 394.706 242.265 391.892 240.007C389.079 237.748 387.671 234.395 387.667 229.949L387.662 228.77Z" fill="#534E4C"/>
<path d="M429.408 201.048H434.675V215.454C435.884 214.173 437.32 213.128 438.911 212.37C440.474 211.705 442.16 211.378 443.858 211.41C445.302 211.389 446.742 211.582 448.129 211.984C449.317 212.339 450.391 212.997 451.246 213.894C452.141 214.892 452.789 216.086 453.137 217.379C453.602 219.092 453.82 220.862 453.783 222.636V242.661H448.516V223.866C448.533 222.673 448.426 221.481 448.195 220.31C448.029 219.451 447.682 218.638 447.178 217.923C446.723 217.317 446.104 216.855 445.394 216.592C444.538 216.292 443.635 216.151 442.729 216.175C441.845 216.172 440.965 216.313 440.126 216.592C439.303 216.86 438.529 217.26 437.833 217.775C437.13 218.296 436.526 218.938 436.048 219.67C435.549 220.435 435.191 221.283 434.991 222.174C434.737 223.602 434.629 225.052 434.67 226.502V242.661H429.408V201.048Z" fill="#534E4C"/>
<path d="M463.696 201.048H468.963V206.981H463.696V201.048ZM463.696 212.177H468.963V242.656H463.696V212.177Z" fill="#534E4C"/>
<path d="M482.251 254.661H477.37V212.825H482.251V216.858C483.282 215.262 484.703 213.954 486.38 213.059C488.121 212.217 490.039 211.804 491.973 211.855C493.842 211.83 495.693 212.213 497.398 212.977C499.006 213.712 500.424 214.805 501.542 216.173C502.731 217.652 503.625 219.345 504.176 221.161C504.82 223.271 505.134 225.467 505.106 227.673C505.134 229.9 504.82 232.119 504.176 234.251C503.627 236.081 502.733 237.79 501.542 239.285C500.426 240.663 499.009 241.767 497.398 242.511C495.696 243.287 493.843 243.675 491.973 243.649C489.976 243.694 487.996 243.272 486.192 242.414C484.559 241.605 483.197 240.34 482.272 238.772L482.251 254.661ZM499.885 227.358C499.905 225.811 499.694 224.271 499.259 222.786C498.896 221.528 498.284 220.355 497.459 219.337C496.689 218.405 495.717 217.658 494.617 217.153C493.446 216.628 492.174 216.366 490.89 216.386C488.09 216.386 485.917 217.375 484.372 219.352C482.826 221.33 482.055 224.127 482.058 227.744C482.058 231.442 482.807 234.282 484.305 236.263C485.804 238.244 487.927 239.226 490.676 239.209C493.636 239.209 495.905 238.193 497.485 236.161C499.064 234.129 499.864 231.195 499.885 227.358V227.358Z" fill="#534E4C"/>
<path d="M532.4 222.256C532.358 219.151 532.836 216.06 533.813 213.113C534.677 210.543 536.061 208.179 537.881 206.169C539.659 204.239 541.841 202.727 544.272 201.739C549.663 199.688 555.616 199.666 561.021 201.678C563.417 202.622 565.579 204.073 567.362 205.93C569.176 207.847 570.563 210.127 571.429 212.62C572.404 215.44 572.883 218.409 572.843 221.392C572.868 224.34 572.413 227.272 571.495 230.074C570.656 232.649 569.313 235.031 567.545 237.084C565.782 239.092 563.601 240.691 561.153 241.767C558.425 242.939 555.479 243.519 552.509 243.469C549.676 243.511 546.862 243.004 544.222 241.975C541.833 241.029 539.679 239.573 537.912 237.708C536.119 235.781 534.746 233.503 533.88 231.018C532.881 228.205 532.381 225.24 532.4 222.256V222.256ZM538.471 222.093C538.439 224.366 538.77 226.63 539.452 228.799C540.031 230.665 540.986 232.394 542.259 233.878C543.489 235.275 545.021 236.372 546.738 237.089C548.634 237.852 550.664 238.227 552.708 238.191C554.735 238.225 556.748 237.843 558.621 237.068C560.329 236.337 561.841 235.215 563.035 233.792C564.306 232.245 565.25 230.456 565.811 228.534C566.49 226.226 566.815 223.828 566.777 221.423C566.812 219.134 566.486 216.854 565.811 214.667C565.243 212.82 564.298 211.111 563.035 209.648C561.821 208.274 560.303 207.202 558.601 206.519C556.726 205.777 554.724 205.412 552.708 205.442C550.62 205.401 548.546 205.778 546.606 206.55C544.879 207.256 543.348 208.367 542.142 209.79C540.871 211.327 539.93 213.108 539.376 215.023C538.725 217.322 538.42 219.705 538.471 222.093Z" fill="#534E4C"/>
<path d="M577.677 212.179H583.458L587.923 229.958L589.173 235.926C589.301 235.266 589.412 234.687 589.509 234.194C589.606 233.701 589.697 233.244 589.784 232.817C589.87 232.391 589.962 231.949 590.058 231.502C590.155 231.055 590.267 230.537 590.394 229.978L595.016 212.199H600.863L605.393 229.749C605.561 230.349 605.724 231.034 605.871 231.781L606.644 235.632C606.731 235.124 606.781 234.743 606.802 234.494C606.822 234.245 606.868 233.986 606.934 233.645C607 233.305 607.102 232.878 607.254 232.315C607.407 231.751 607.641 230.887 607.961 229.729L612.649 212.179H618.171L609.146 242.657H603.751L597.878 219.204L591.934 242.657H586.57L577.677 212.179Z" fill="#534E4C"/>
<path d="M624.684 212.178H629.952V216.161C631.173 214.643 632.679 213.379 634.385 212.437C635.943 211.715 637.647 211.367 639.363 211.421C640.633 211.412 641.896 211.613 643.1 212.016C644.217 212.388 645.252 212.969 646.151 213.728C647.036 214.491 647.743 215.44 648.221 216.506C648.741 217.694 648.997 218.979 648.973 220.275L649.039 223.257V242.662H643.772V224.243C643.772 221.418 643.433 219.505 642.755 218.503C641.738 216.938 640.078 216.157 637.777 216.161C634.675 216.161 632.416 217.454 630.999 220.042C630.308 221.17 629.955 222.473 629.982 223.796L629.916 226.681V242.662H624.648L624.684 212.178Z" fill="#534E4C"/>
<path d="M684.956 229.12H662.828C662.828 232.262 663.572 234.653 665.06 236.292C666.548 237.931 668.663 238.749 671.405 238.745C675.558 238.745 678.1 236.703 679.032 232.619H684.523C684.177 234.226 683.582 235.768 682.759 237.191C682.001 238.484 681.022 239.635 679.866 240.589C678.711 241.53 677.395 242.253 675.981 242.723C674.438 243.23 672.822 243.481 671.197 243.465C669.204 243.497 667.226 243.12 665.385 242.357C663.703 241.641 662.208 240.548 661.017 239.162C659.763 237.672 658.822 235.944 658.251 234.082C657.581 231.906 657.257 229.638 657.29 227.362C657.256 225.093 657.613 222.835 658.348 220.687C658.987 218.838 659.991 217.137 661.302 215.684C662.565 214.318 664.111 213.245 665.833 212.539C669.42 211.141 673.393 211.085 677.019 212.382C678.623 212.981 680.069 213.94 681.244 215.186C682.487 216.556 683.423 218.175 683.99 219.935C684.681 222.119 685.011 224.401 684.966 226.691L684.956 229.12ZM679.688 224.37C679.706 223.192 679.499 222.021 679.078 220.921C678.702 219.954 678.129 219.075 677.395 218.34C676.657 217.623 675.775 217.07 674.807 216.72C673.748 216.337 672.628 216.148 671.502 216.161C666.621 216.161 663.794 218.897 663.021 224.37H679.688Z" fill="#534E4C"/>
<path d="M693.174 212.178H698.472V217.257C700.439 213.366 702.911 211.421 705.891 211.421H706.755C707.223 211.447 707.686 211.522 708.138 211.644V217.232L706.471 217.075C704.703 217.02 702.967 217.543 701.523 218.563C700.117 219.653 699.167 221.226 698.859 222.977C698.605 224.47 698.496 225.984 698.533 227.498V242.661H693.174V212.178Z" fill="#534E4C"/>
<path d="M712.948 232.68H718.505C718.505 233.28 718.52 233.788 718.551 234.204C718.577 234.572 718.632 234.937 718.714 235.296C718.781 235.592 718.9 235.874 719.065 236.129C719.248 236.402 719.457 236.655 719.69 236.886C720.91 238.126 722.763 238.745 725.247 238.745C727.24 238.745 728.832 238.344 730.032 237.542C730.588 237.208 731.047 236.735 731.363 236.169C731.679 235.603 731.841 234.964 731.832 234.316C731.835 233.683 731.613 233.069 731.206 232.584C730.54 231.908 729.733 231.388 728.842 231.06L719.242 228.078C715.71 226.473 713.944 223.874 713.944 220.281C713.931 219.034 714.217 217.803 714.778 216.69C715.337 215.593 716.133 214.634 717.107 213.88C718.171 213.062 719.378 212.447 720.666 212.067C722.168 211.625 723.728 211.409 725.293 211.427C726.84 211.408 728.381 211.614 729.869 212.037C731.163 212.402 732.373 213.018 733.428 213.85C734.431 214.654 735.228 215.685 735.752 216.857C736.324 218.189 736.603 219.629 736.571 221.078H731.176C731.2 220.263 731.025 219.454 730.668 218.721C730.351 218.109 729.886 217.585 729.315 217.197C728.72 216.799 728.056 216.515 727.357 216.359C726.605 216.189 725.836 216.104 725.064 216.105C724.312 216.1 723.561 216.192 722.832 216.38C722.184 216.539 721.565 216.798 720.997 217.147C720.501 217.45 720.074 217.855 719.746 218.335C719.442 218.774 719.281 219.295 719.283 219.829C719.283 221.495 720.161 222.66 721.917 223.324L730.84 226.082C731.828 226.505 732.789 226.986 733.718 227.524C734.469 227.96 735.154 228.5 735.752 229.13C736.287 229.703 736.707 230.374 736.988 231.106C737.279 231.92 737.421 232.781 737.405 233.645C737.421 234.987 737.135 236.314 736.568 237.53C736.001 238.746 735.168 239.82 734.13 240.671C732.987 241.596 731.679 242.297 730.276 242.738C728.632 243.259 726.916 243.515 725.191 243.495C721.212 243.495 718.178 242.586 716.09 240.767C714.002 238.949 712.955 236.253 712.948 232.68Z" fill="#534E4C"/>
<path d="M774.078 217.222C772.594 215.693 771.341 213.958 770.356 212.071C769.584 210.544 769.177 208.859 769.166 207.149C769.151 205.781 769.419 204.425 769.954 203.166C770.455 201.98 771.204 200.915 772.151 200.042C773.122 199.155 774.257 198.465 775.491 198.01C776.847 197.504 778.285 197.253 779.732 197.269C781.214 197.251 782.689 197.474 784.099 197.929C785.331 198.323 786.468 198.966 787.44 199.819C788.358 200.64 789.082 201.655 789.56 202.79C790.063 204.011 790.314 205.321 790.298 206.641C790.322 208.914 789.624 211.137 788.304 212.99C786.979 214.873 784.893 216.659 782.045 218.349L790.298 228.422C790.833 227.403 791.238 226.321 791.503 225.202C791.818 223.845 792.027 222.466 792.128 221.077H797.299C797.349 225.196 796.176 229.237 793.928 232.689L802.211 242.635H794.823L790.491 237.312C786.911 241.568 782.383 243.697 776.905 243.697C775.09 243.718 773.287 243.395 771.591 242.747C770.034 242.157 768.614 241.257 767.417 240.1C766.239 238.956 765.31 237.581 764.687 236.062C764.019 234.433 763.685 232.687 763.705 230.926C763.669 228.258 764.516 225.653 766.115 223.515C767.695 221.395 770.349 219.297 774.078 217.222ZM777.032 220.848C775.808 221.542 774.635 222.319 773.518 223.175C772.637 223.842 771.838 224.611 771.139 225.466C770.559 226.185 770.108 227 769.807 227.874C769.522 228.742 769.382 229.652 769.39 230.566C769.378 231.667 769.591 232.759 770.015 233.776C770.41 234.73 770.995 235.594 771.734 236.316C772.483 237.034 773.368 237.596 774.337 237.967C775.391 238.372 776.513 238.574 777.642 238.561C779.442 238.562 781.214 238.115 782.798 237.261C784.577 236.281 786.161 234.983 787.471 233.431L777.032 220.848ZM779.122 215.261C780.917 214.24 782.498 212.882 783.779 211.263C784.73 210 785.247 208.465 785.254 206.884C785.262 206.162 785.137 205.444 784.888 204.766C784.653 204.147 784.291 203.585 783.825 203.115C783.349 202.646 782.781 202.28 782.157 202.038C781.464 201.777 780.727 201.648 779.986 201.657C778.23 201.657 776.861 202.121 775.878 203.049C775.37 203.559 774.976 204.17 774.721 204.842C774.466 205.514 774.356 206.233 774.398 206.95C774.435 208.296 774.816 209.609 775.507 210.765C776.504 212.421 777.72 213.935 779.122 215.266V215.261Z" fill="#534E4C"/>
<path d="M827.121 242.662V201.08H834.153L847.19 235.622L859.846 201.08H866.877V242.662H861.793V209.324L849.62 242.662H844.932L832.221 209.324V242.662H827.121Z" fill="#534E4C"/>
<path d="M876.733 221.68C876.702 220.15 876.992 218.632 877.582 217.22C878.128 215.967 878.965 214.861 880.022 213.994C881.156 213.092 882.462 212.432 883.861 212.054C885.518 211.606 887.23 211.391 888.946 211.414C890.654 211.392 892.36 211.563 894.031 211.922C895.352 212.191 896.597 212.75 897.676 213.558C898.66 214.333 899.419 215.357 899.873 216.524C900.404 217.96 900.656 219.484 900.615 221.015V235.547C900.615 237.644 901.235 238.692 902.476 238.692L904.001 238.565V242.578C903.615 242.705 903.274 242.806 902.984 242.883C902.695 242.959 902.41 243.02 902.166 243.076C901.938 243.123 901.707 243.155 901.474 243.172C901.261 243.172 901.022 243.172 900.768 243.172C897.92 243.172 896.293 241.631 895.886 238.55C892.934 241.821 889.444 243.458 885.417 243.462C884.036 243.481 882.66 243.268 881.35 242.832C880.192 242.45 879.126 241.835 878.217 241.023C877.34 240.229 876.646 239.253 876.184 238.164C875.696 236.962 875.456 235.675 875.477 234.379C875.477 230.549 877.172 227.84 880.561 226.252C882.877 225.185 886.849 224.338 892.48 223.712L895.53 223.295V221.817C895.559 220.878 895.41 219.943 895.093 219.059C894.836 218.373 894.399 217.769 893.827 217.311C893.229 216.851 892.533 216.533 891.793 216.382C890.864 216.188 889.916 216.096 888.966 216.108C886.8 216.108 885.136 216.566 883.973 217.484C882.804 218.409 882.219 219.806 882.219 221.69L876.733 221.68ZM895.454 227.39L893.512 227.679L891.727 227.953C891.127 228.052 890.492 228.163 889.82 228.289C889.144 228.416 888.366 228.578 887.492 228.771C886.489 229.002 885.503 229.295 884.538 229.65C883.823 229.907 883.151 230.27 882.544 230.727C882.058 231.099 881.676 231.591 881.436 232.154C881.2 232.773 881.086 233.432 881.1 234.095C881.063 234.738 881.172 235.381 881.42 235.976C881.667 236.571 882.046 237.101 882.529 237.529C883.478 238.341 884.821 238.748 886.556 238.748C887.732 238.755 888.9 238.56 890.009 238.169C891.031 237.825 891.987 237.309 892.836 236.645C893.616 236.031 894.266 235.268 894.747 234.399C895.214 233.566 895.458 232.627 895.454 231.672V227.39Z" fill="#534E4C"/>
<path d="M910.859 212.178H916.127V216.161C917.35 214.645 918.855 213.38 920.561 212.437C922.118 211.716 923.823 211.368 925.539 211.421C926.81 211.413 928.075 211.613 929.281 212.016C930.397 212.389 931.432 212.97 932.332 213.728C933.217 214.491 933.923 215.44 934.401 216.506C934.923 217.693 935.181 218.979 935.159 220.275L935.22 223.257V242.661H929.982V224.243C929.982 221.418 929.643 219.505 928.966 218.502C927.949 216.938 926.289 216.157 923.988 216.161C920.886 216.161 918.629 217.454 917.215 220.042C916.522 221.169 916.169 222.473 916.198 223.795L916.132 226.681V242.661H910.864L910.859 212.178Z" fill="#534E4C"/>
<path d="M945.185 221.68C945.155 220.151 945.444 218.632 946.034 217.22C946.581 215.967 947.417 214.862 948.475 213.994C949.608 213.092 950.915 212.432 952.314 212.054C953.971 211.606 955.682 211.391 957.398 211.414C959.107 211.392 960.812 211.563 962.483 211.922C963.804 212.191 965.049 212.75 966.128 213.558C967.114 214.331 967.873 215.356 968.325 216.524C968.856 217.96 969.108 219.484 969.067 221.015V235.548C969.067 237.644 969.688 238.692 970.928 238.692L972.454 238.565V242.578C972.067 242.705 971.726 242.806 971.437 242.883C971.147 242.959 970.862 243.02 970.618 243.076C970.39 243.123 970.159 243.155 969.927 243.172C969.713 243.172 969.479 243.172 969.22 243.172C966.372 243.172 964.745 241.631 964.339 238.55C961.386 241.821 957.896 243.458 953.869 243.462C952.488 243.481 951.113 243.268 949.802 242.832C948.644 242.45 947.578 241.835 946.67 241.023C945.801 240.227 945.118 239.251 944.666 238.164C944.177 236.963 943.936 235.675 943.96 234.379C943.96 230.549 945.654 227.84 949.044 226.252C951.359 225.185 955.332 224.338 960.962 223.712L964.013 223.295V221.817C964.04 220.879 963.894 219.944 963.581 219.059C963.323 218.373 962.884 217.769 962.31 217.311C961.712 216.85 961.016 216.532 960.276 216.382C959.347 216.187 958.399 216.095 957.449 216.108C955.29 216.108 953.625 216.566 952.456 217.484C951.286 218.409 950.707 219.806 950.707 221.69L945.185 221.68ZM963.906 227.39L961.964 227.679L960.184 227.953C959.584 228.05 958.944 228.162 958.273 228.289C957.601 228.416 956.818 228.578 955.944 228.771C954.942 229.002 953.955 229.296 952.99 229.65C952.276 229.908 951.604 230.271 950.997 230.727C950.51 231.099 950.129 231.591 949.888 232.154C949.652 232.773 949.538 233.432 949.553 234.095C949.516 234.738 949.626 235.38 949.873 235.975C950.121 236.57 950.5 237.101 950.981 237.529C951.932 238.341 953.28 238.748 955.013 238.748C956.184 238.763 957.349 238.575 958.456 238.194C959.476 237.849 960.43 237.334 961.278 236.67C962.06 236.058 962.71 235.294 963.189 234.425C963.656 233.592 963.9 232.652 963.896 231.697L963.906 227.39Z" fill="#534E4C"/>
<path d="M998.488 216.252V212.189H1003.71V238.039C1003.74 240.097 1003.64 242.155 1003.42 244.201C1002.95 247.899 1001.62 250.652 999.439 252.46C997.256 254.269 994.29 255.173 990.541 255.173C986.921 255.173 984.165 254.424 982.274 252.928C980.382 251.431 979.252 249.06 978.882 245.816H984.119C984.294 246.554 984.565 247.266 984.923 247.934C985.227 248.493 985.648 248.98 986.158 249.362C986.69 249.748 987.296 250.022 987.938 250.164C988.752 250.336 989.582 250.416 990.414 250.403C991.74 250.449 993.06 250.208 994.283 249.697C995.277 249.251 996.111 248.511 996.673 247.579C997.307 246.485 997.717 245.276 997.878 244.023C998.118 242.371 998.23 240.704 998.214 239.035C997.625 239.753 996.975 240.419 996.271 241.026C995.658 241.555 994.986 242.012 994.268 242.387C993.577 242.743 992.842 243.008 992.082 243.175C989.559 243.701 986.935 243.421 984.582 242.372C983.116 241.667 981.839 240.622 980.86 239.324C979.783 237.866 978.993 236.216 978.531 234.463C977.968 232.349 977.697 230.168 977.728 227.981C977.698 225.646 977.973 223.317 978.547 221.053C979.007 219.183 979.813 217.416 980.921 215.841C981.913 214.435 983.237 213.294 984.774 212.519C986.311 211.744 988.016 211.358 989.738 211.396C993.429 211.406 996.346 213.025 998.488 216.252ZM983.301 227.387C983.275 228.953 983.446 230.516 983.809 232.04C984.111 233.303 984.627 234.506 985.334 235.596C985.945 236.544 986.771 237.336 987.745 237.907C988.712 238.458 989.809 238.741 990.922 238.725C992.015 238.743 993.092 238.466 994.039 237.922C994.994 237.353 995.802 236.568 996.398 235.631C997.094 234.53 997.599 233.319 997.893 232.05C998.25 230.515 998.42 228.942 998.402 227.367C998.423 225.812 998.253 224.262 997.893 222.749C997.591 221.486 997.076 220.283 996.368 219.193C995.763 218.268 994.954 217.493 994.004 216.928C993.067 216.391 992.002 216.115 990.922 216.13C989.811 216.112 988.715 216.387 987.745 216.928C986.776 217.486 985.951 218.262 985.334 219.193C984.619 220.279 984.102 221.483 983.809 222.749C983.446 224.268 983.275 225.826 983.301 227.387Z" fill="#534E4C"/>
<path d="M1039.59 229.12H1017.46C1017.46 232.262 1018.21 234.653 1019.7 236.292C1021.18 237.931 1023.3 238.749 1026.04 238.745C1030.19 238.745 1032.73 236.703 1033.66 232.619H1039.16C1038.81 234.227 1038.22 235.77 1037.39 237.191C1036.63 238.484 1035.66 239.634 1034.5 240.589C1033.35 241.53 1032.03 242.253 1030.61 242.723C1029.07 243.23 1027.45 243.481 1025.83 243.465C1023.84 243.496 1021.86 243.119 1020.02 242.357C1018.34 241.64 1016.84 240.547 1015.65 239.162C1014.39 237.673 1013.45 235.945 1012.89 234.082C1012.22 231.906 1011.89 229.639 1011.92 227.362C1011.89 225.092 1012.25 222.834 1012.98 220.687C1013.62 218.837 1014.63 217.135 1015.94 215.684C1017.2 214.316 1018.75 213.242 1020.47 212.539C1024.06 211.141 1028.03 211.085 1031.66 212.382C1033.26 212.979 1034.7 213.939 1035.88 215.186C1037.12 216.553 1038.06 218.173 1038.62 219.935C1039.32 222.118 1039.65 224.401 1039.6 226.691L1039.59 229.12ZM1034.32 224.37C1034.34 223.192 1034.13 222.021 1033.71 220.921C1033.33 219.953 1032.76 219.075 1032.02 218.34C1031.29 217.623 1030.4 217.07 1029.44 216.72C1028.38 216.337 1027.26 216.147 1026.13 216.161C1021.25 216.161 1018.42 218.897 1017.65 224.37H1034.32Z" fill="#534E4C"/>
<path d="M1047.8 212.178H1053.1V217.257C1055.07 213.366 1057.55 211.421 1060.52 211.421H1061.39C1061.86 211.447 1062.32 211.522 1062.77 211.644V217.232L1061.1 217.075C1059.33 217.02 1057.6 217.543 1056.15 218.563C1054.75 219.653 1053.8 221.226 1053.49 222.977C1053.24 224.47 1053.13 225.984 1053.17 227.498V242.661H1047.8V212.178Z" fill="#534E4C"/>
<path d="M1067.58 232.682H1073.13C1073.13 233.281 1073.13 233.789 1073.19 234.206C1073.21 234.574 1073.26 234.939 1073.34 235.298C1073.41 235.594 1073.53 235.876 1073.7 236.131C1073.88 236.406 1074.09 236.659 1074.32 236.888C1075.54 238.127 1077.4 238.747 1079.88 238.747C1081.87 238.747 1083.46 238.346 1084.67 237.543C1085.22 237.21 1085.68 236.736 1086 236.17C1086.31 235.604 1086.47 234.965 1086.46 234.318C1086.46 233.685 1086.24 233.071 1085.84 232.585C1085.17 231.911 1084.36 231.391 1083.48 231.062L1073.88 228.065C1070.35 226.459 1068.58 223.86 1068.58 220.267C1068.56 219.02 1068.85 217.788 1069.42 216.676C1069.98 215.581 1070.77 214.622 1071.74 213.867C1072.81 213.046 1074.03 212.431 1075.33 212.053C1076.83 211.611 1078.38 211.395 1079.95 211.413C1081.49 211.394 1083.04 211.599 1084.52 212.023C1085.82 212.386 1087.03 213.003 1088.08 213.836C1089.08 214.643 1089.88 215.675 1090.4 216.849C1090.97 218.182 1091.25 219.621 1091.22 221.07H1085.85C1085.87 220.255 1085.7 219.446 1085.34 218.713C1085.03 218.1 1084.56 217.576 1083.99 217.189C1083.39 216.789 1082.72 216.504 1082.01 216.351C1081.26 216.181 1080.49 216.096 1079.71 216.097C1078.96 216.092 1078.21 216.184 1077.48 216.371C1076.84 216.529 1076.22 216.788 1075.65 217.138C1075.16 217.442 1074.73 217.847 1074.4 218.327C1074.1 218.765 1073.93 219.286 1073.93 219.82C1073.93 221.486 1074.81 222.651 1076.57 223.315L1085.49 226.073C1086.48 226.491 1087.43 226.967 1088.35 227.501C1089.1 227.935 1089.79 228.476 1090.39 229.106C1090.92 229.676 1091.34 230.348 1091.62 231.082C1091.92 231.896 1092.06 232.757 1092.04 233.622C1092.05 234.973 1091.76 236.309 1091.19 237.533C1090.62 238.735 1089.79 239.798 1088.76 240.647C1087.62 241.572 1086.31 242.274 1084.91 242.714C1083.27 243.236 1081.55 243.491 1079.83 243.471C1075.85 243.471 1072.81 242.562 1070.72 240.743C1068.63 238.925 1067.58 236.238 1067.58 232.682Z" fill="#534E4C"/>
<path d="M447.931 80.7945C445.342 78.749 442.14 77.6342 438.839 77.6299H402.042C398.725 77.6261 395.503 78.7332 392.89 80.7742C389.331 83.441 387.516 87.0984 387.516 91.6549V149.975C387.516 154.546 389.326 158.189 392.875 160.835C395.485 162.883 398.708 163.998 402.027 164H438.824C442.142 164.001 445.363 162.884 447.966 160.83C451.424 158.163 453.178 154.511 453.178 149.975V91.6549C453.152 87.1137 451.398 83.4614 447.931 80.7945ZM441.666 91.7362V149.888C441.697 150.256 441.628 150.626 441.467 150.958C441.306 151.29 441.059 151.573 440.751 151.778L440.675 151.834C440.158 152.268 439.505 152.509 438.829 152.515H401.986C401.272 152.502 400.582 152.25 400.029 151.798C399.726 151.586 399.485 151.297 399.33 150.962C399.175 150.627 399.111 150.256 399.144 149.888V91.7362C399.111 91.3683 399.176 90.9982 399.331 90.663C399.486 90.3278 399.727 90.0392 400.029 89.8262C400.583 89.3758 401.272 89.1253 401.986 89.115H438.814C439.489 89.1186 440.142 89.3575 440.66 89.7906L440.736 89.8516C441.046 90.0536 441.296 90.3351 441.459 90.6666C441.623 90.9982 441.695 91.3676 441.666 91.7362V91.7362Z" fill="#534E4C"/>
<path d="M518.93 95.4174C516.36 93.3848 513.182 92.2723 509.905 92.2578H473.113C469.812 92.2545 466.599 93.3243 463.961 95.3056C460.401 97.9725 458.591 101.63 458.591 106.181V163.998H470.21V106.181C470.176 105.812 470.24 105.44 470.394 105.102C470.549 104.765 470.788 104.473 471.089 104.256C471.644 103.802 472.335 103.548 473.052 103.535H509.895C510.57 103.542 511.221 103.784 511.735 104.22L511.807 104.276C512.116 104.483 512.365 104.768 512.527 105.103C512.689 105.438 512.758 105.811 512.727 106.181V125.992H524.233V106.181C524.29 104.092 523.836 102.02 522.912 100.145C521.988 98.2696 520.622 96.6471 518.93 95.4174V95.4174Z" fill="#534E4C"/>
<path d="M541.359 92.2578H529.74V163.993H541.359V92.2578Z" fill="#534E4C"/>
<path d="M541.359 70.3154H529.74V82.7099H541.359V70.3154Z" fill="#534E4C"/>
<path d="M607.077 95.4174C604.507 93.3848 601.329 92.2723 598.051 92.2578H561.259C557.958 92.2552 554.746 93.325 552.107 95.3056C548.548 97.9725 546.738 101.63 546.738 106.181V149.973C546.738 154.545 548.548 158.187 552.092 160.834C554.703 162.881 557.925 163.995 561.244 163.998H612.354V152.513H561.198C560.487 152.498 559.8 152.248 559.246 151.802C558.945 151.589 558.704 151.302 558.549 150.967C558.394 150.633 558.329 150.264 558.361 149.897V143.425C558.361 139.423 564.864 137.122 570.325 135.892L596.373 130.025L596.633 129.949C607.077 126.393 612.37 120.618 612.37 112.8V106.196C612.428 104.106 611.977 102.032 611.054 100.154C610.132 98.2766 608.767 96.6509 607.077 95.4174V95.4174ZM600.883 106.181V112.785C600.883 115.289 598.372 117.417 593.429 119.114C592.26 119.51 587.938 120.572 574.017 123.401C567.407 124.727 562.251 126.231 558.361 127.973V106.181C558.328 105.812 558.392 105.44 558.546 105.102C558.7 104.765 558.94 104.473 559.241 104.256C559.795 103.802 560.487 103.548 561.203 103.535H598.046C598.721 103.542 599.372 103.784 599.887 104.22L599.963 104.276C600.272 104.484 600.52 104.769 600.682 105.104C600.844 105.439 600.913 105.811 600.883 106.181Z" fill="#534E4C"/>
<path d="M678.342 95.4174C675.744 93.3764 672.536 92.264 669.23 92.2578H632.362C629.045 92.2541 625.823 93.3611 623.21 95.4021C619.651 98.069 617.82 101.726 617.82 106.283V163.998H629.439V106.374C629.405 106.005 629.47 105.633 629.625 105.296C629.78 104.96 630.021 104.669 630.323 104.454C630.875 104.004 631.563 103.754 632.276 103.743H669.144C669.815 103.746 670.463 103.985 670.974 104.419L671.061 104.485C671.368 104.689 671.616 104.972 671.776 105.305C671.937 105.637 672.006 106.006 671.976 106.374V163.998H683.6V106.283C683.574 101.747 681.82 98.0944 678.342 95.4174Z" fill="#534E4C"/>
<path d="M701.522 151.839L701.4 151.748C701.112 151.552 700.881 151.282 700.733 150.966C700.584 150.651 700.523 150.301 700.556 149.954V103.582H739.819V92.3102H700.582V77.5791H688.974V149.914C688.974 154.455 690.84 158.219 694.363 160.8C696.971 162.852 700.196 163.965 703.516 163.959H754.626V152.479H703.414C702.725 152.511 702.05 152.283 701.522 151.839Z" fill="#534E4C"/>
<path d="M803.418 80.0781C799.925 82.618 798.079 86.3922 798.079 90.9842V163.979H809.682V131.261H863.655V119.872H809.682V90.9842C809.682 89.7447 810.089 89.3739 810.47 89.1199L810.714 88.932C811.202 88.5169 811.828 88.301 812.468 88.3275H863.655V77.0506H812.53C809.239 77.0159 806.032 78.0816 803.418 80.0781V80.0781Z" fill="#534E4C"/>
<path d="M880.809 77.6299H869.191V164H880.809V77.6299Z" fill="#534E4C"/>
<path d="M946.53 95.4174C943.962 93.3856 940.786 92.273 937.51 92.2578H900.713C897.412 92.2534 894.199 93.3233 891.561 95.3056C888.002 97.9725 886.187 101.63 886.187 106.181V149.973C886.187 154.545 887.997 158.187 891.541 160.834C894.152 162.881 897.374 163.995 900.693 163.998H951.849V152.513H900.652C899.94 152.498 899.252 152.246 898.7 151.797C898.398 151.586 898.158 151.299 898.002 150.965C897.847 150.632 897.782 150.263 897.815 149.897V143.425C897.815 139.423 904.318 137.122 909.779 135.892L935.827 130.025L936.092 129.949C946.53 126.393 951.823 120.618 951.823 112.8V106.196C951.882 104.106 951.431 102.032 950.509 100.154C949.587 98.2762 948.221 96.6506 946.53 95.4174V95.4174ZM940.337 106.181V112.785C940.337 115.289 937.826 117.417 932.883 119.114C931.714 119.51 927.392 120.572 913.47 123.401C906.86 124.727 901.71 126.231 897.815 127.973V106.181C897.781 105.811 897.845 105.439 898.001 105.101C898.156 104.763 898.397 104.472 898.7 104.256C899.252 103.802 899.942 103.548 900.657 103.535H937.5C938.176 103.542 938.829 103.785 939.346 104.22L939.417 104.276C939.726 104.484 939.974 104.769 940.136 105.104C940.298 105.439 940.367 105.811 940.337 106.181V106.181Z" fill="#534E4C"/>
<path d="M1017.6 95.4174C1015.03 93.3848 1011.85 92.2723 1008.58 92.2578H971.784C968.483 92.2545 965.27 93.3243 962.631 95.3056C959.072 97.9725 957.262 101.63 957.262 106.181V149.973C957.262 154.545 959.067 158.187 962.616 160.834C965.227 162.881 968.449 163.996 971.769 163.998H1022.88V152.513H971.718C971.006 152.497 970.32 152.247 969.765 151.802C969.465 151.588 969.226 151.3 969.072 150.966C968.918 150.632 968.853 150.263 968.886 149.897V143.425C968.886 139.423 975.389 137.122 980.844 135.892L1006.89 130.025L1007.16 129.949C1017.6 126.393 1022.92 120.618 1022.92 112.8V106.196C1022.97 104.104 1022.52 102.029 1021.59 100.151C1020.67 98.273 1019.3 96.6484 1017.6 95.4174V95.4174ZM1011.4 106.181V112.785C1011.4 115.289 1008.89 117.417 1003.95 119.114C1002.78 119.51 998.463 120.572 984.541 123.401C977.931 124.727 972.775 126.231 968.886 127.973V106.181C968.852 105.812 968.916 105.44 969.07 105.102C969.224 104.765 969.464 104.473 969.765 104.256C970.32 103.802 971.011 103.548 971.728 103.535H1008.57C1009.25 103.542 1009.9 103.784 1010.41 104.22L1010.48 104.276C1010.79 104.483 1011.04 104.768 1011.2 105.103C1011.36 105.438 1011.43 105.811 1011.4 106.181V106.181Z" fill="#534E4C"/>
<path d="M1042.81 152.498C1042.12 152.521 1041.45 152.285 1040.92 151.837L1040.8 151.746C1040.51 151.548 1040.28 151.278 1040.14 150.963C1039.99 150.648 1039.93 150.299 1039.96 149.953V103.606H1079.19V92.3287H1039.96V77.5977H1028.35V149.932C1028.35 154.474 1030.22 158.238 1033.74 160.813C1036.35 162.867 1039.57 163.982 1042.89 163.978H1094V152.498H1042.81Z" fill="#534E4C"/>
</svg>
